<svg width="500" height="500" viewBox="0 0 500 500" fill="none" xmlns="http://www.w3.org/2000/svg">
<path d="M50 90C50 67.9086 67.9086 50 90 50H410C432.091 50 450 67.9086 450 90V410C450 432.091 432.091 450 410 450H90C67.9086 450 50 432.091 50 410V90Z" fill="#F06423"/>
<path d="M50 90C50 67.9086 67.9086 50 90 50H410C432.091 50 450 67.9086 450 90V120H50V90Z" fill="#46508C"/>
<path d="M50 90C50 67.9086 67.9086 50 90 50H358C380.091 50 398 67.9086 398 90V410C398 432.091 380.091 450 358 450H90C67.9086 450 50 432.091 50 410V90Z" fill="#FAA51E"/>
<path d="M50 90C50 67.9086 67.9086 50 90 50H358C380.091 50 398 67.9086 398 90V120H50V90Z" fill="#5F78BE"/>
<circle cx="250" cy="375" r="30" fill="#F06423"/>
<circle cx="154" cy="280" r="30" fill="#F06423"/>
<circle cx="250" cy="280" r="30" fill="#F06423"/>
<circle cx="346" cy="280" r="30" fill="#F06423"/>
<circle cx="154" cy="185" r="30" fill="#F06423"/>
<circle cx="250" cy="185" r="30" fill="#F06423"/>
<circle cx="346" cy="185" r="30" fill="#F06423"/>
<rect x="0.5" y="0.5" width="499" height="499" stroke="#FF2B2B"/>
</svg>