<?xml version="1.0" encoding="utf-8"?>
<!-- Generator: Adobe Illustrator 26.0.3, SVG Export Plug-In . SVG Version: 6.00 Build 0)  -->
<svg version="1.1" id="Bold" xmlns="http://www.w3.org/2000/svg" xmlns:xlink="http://www.w3.org/1999/xlink" x="0px" y="0px"
	 viewBox="0 0 512 512" style="enable-background:new 0 0 512 512;" xml:space="preserve">
<path d="M362.7,512c17.7,0,32-14.3,32-32v-32c0-29.5,23.9-53.3,53.3-53.3h32c17.7,0,32-14.3,32-32s-14.3-32-32-32h-32
	c-64.8,0.1-117.3,52.6-117.3,117.3v32C330.7,497.7,345,512,362.7,512z"/>
<path d="M32,181.3h32c64.8-0.1,117.3-52.6,117.3-117.3V32c0-17.7-14.3-32-32-32s-32,14.3-32,32v32c0,29.5-23.9,53.3-53.3,53.3H32
	c-17.7,0-32,14.3-32,32S14.3,181.3,32,181.3z"/>
<path d="M32,394.7h32c29.5,0,53.3,23.9,53.3,53.3v32c0,17.7,14.3,32,32,32s32-14.3,32-32v-32c-0.1-64.8-52.6-117.3-117.3-117.3H32
	c-17.7,0-32,14.3-32,32S14.3,394.7,32,394.7z"/>
<path d="M448,181.3h32c17.7,0,32-14.3,32-32s-14.3-32-32-32h-32c-29.5,0-53.3-23.9-53.3-53.3V32c0-17.7-14.3-32-32-32
	s-32,14.3-32,32v32C330.7,128.8,383.2,181.3,448,181.3z"/>
</svg>
